<?xml version="1.0" encoding="utf-8"?>
<svg id="master-artboard" viewBox="0 0 256 256" version="1.1" xmlns="http://www.w3.org/2000/svg" x="0px" y="0px" style="enable-background:new 0 0 256 256;" width="256px" height="256px">
    <defs>
        <linearGradient id="gradient-0" gradientUnits="userSpaceOnUse" x1="128.0101912356913" y1="-0.055066004395484924" x2="128.0101912356913" y2="256.2122374624014">
            <stop offset="0" style="stop-color: #96ba7e"/>
            <stop offset="1" style="stop-color: #638949"/>
        </linearGradient>
    </defs>
    <g transform="matrix(1, 0, 0, 1, -2.842170943040401e-14, 0)">
        <path id="background-green" d="M 8.573469579219818 31.04876232892275 C -5.2079191259006326 59.442412514824404 4.4386083183964145 211.01896684291887 5.8736623246222734 217.88917541503906 C 8.018272399902344 228.1563262939453 237.48461883356566 231.91427599928323 245.48582458496094 212.06316566467285 C 249.91537475585938 201.07339477539062 264.4853515625 31.80058479309082 246.95108032226562 26.68038833141327 C 199.39367670963188 12.793110058794857 16.990797426857828 13.70662993949977 8.573469579219818 31.04876232892275 Z" style="fill: url(#gradient-0); fill-opacity: 1; stroke: rgb(0, 0, 0); stroke-opacity: 0; stroke-width: 0; paint-order: fill;"/>
        <path id="beak" d="M 2.9482362270355225 67.8148193359375 L 22.25604820251465 77.46871948242188 L 39.22351837158203 78.6388931274414 L 24.59638786315918 69.570068359375 L 2.9482362270355225 67.8148193359375 Z" style="fill: rgb(251, 255, 5); fill-opacity: 1; stroke: rgb(0, 0, 0); stroke-opacity: 0; stroke-width: 0; paint-order: stroke;"/>
        <path id="body" d="M 39.22351837158203 78.6388931274414 L 22.25604820251465 77.46871948242188 C 22.25604820251465 77.46871948242188 33.08012390136719 88.5853500366211 34.25029373168945 96.48399353027344 C 35.42046356201172 104.38263702392578 33.37266540527344 114.32908630371094 36.005550384521484 125.15316772460938 C 38.63843536376953 135.9772491455078 61.88113021850586 162.03111267089844 82.51982116699219 163.4762420654297 C 99.46092952603064 164.66246524822225 116.74655169498976 160.05369613839738 132.5446014404297 153.8223419189453 C 139.0280303955078 151.26502990722656 145.9269848523153 137.60290157270708 155.0703887939453 133.05181884765625 C 171.01531982421875 125.11531066894531 201.58465576171875 111.9887466430664 201.58465576171875 111.9887466430664 L 179.0588836669922 107.6006088256836 C 179.0588836669922 107.6006088256836 186.63585351141012 96.25436248955783 192.22329711914062 92.68093872070312 C 211.4521942138672 80.38318634033203 254.82740783691406 56.69819641113281 254.82740783691406 56.69819641113281 C 254.82740783691406 56.69819641113281 247.56089782714844 50.622013092041016 242.24807739257812 52.31005859375 C 210.85761993751012 62.28376675049864 161.90103149414062 93.16608428955078 152.73004150390625 94.14364624023438 C 129.5390323283371 96.61564197811339 113.25188278269007 96.89254408121113 82.81236267089844 91.5107650756836 C 75.99881744384766 90.30611419677734 70.01186558827204 72.82333854019757 64.67472076416016 69.27752685546875 C 55.77175521850586 63.362709045410156 47.436248779296875 64.34838104248047 42.14894485473633 65.18193054199219 C 36.191605079249626 66.12111195829235 24.59638786315918 69.570068359375 24.59638786315918 69.570068359375 L 39.22351837158203 78.6388931274414 Z" style="fill: rgb(0, 0, 0); fill-opacity: 1; stroke: rgb(0, 0, 0); stroke-opacity: 0; stroke-width: 0; paint-order: fill;"/>
        <g transform="matrix(0.08048123121261598, 0, 0, 0.08048123121261598, -5.657848834991455, 7.551272135481899)">
            <path id="eye" class="st0" d="M654,884c-29.2,0-53-23.8-53-53s23.8-53,53-53s53,23.8,53,53S683.2,884,654,884z M654,784&#10;&#9;&#9;&#9;&#9;c-25.9,0-47,21.1-47,47s21.1,47,47,47s47-21.1,47-47S679.9,784,654,784z" style="fill: rgb(251, 255, 20); stroke: rgb(251, 255, 20); stroke-opacity: 1; stroke-width: 29; paint-order: fill;"/>
        </g>
        <path id="legs" d="M 94.22152709960938 162.3060760498047 L 99.19474792480469 168.74200439453125 L 65.25981140136719 192.14541625976562 C 65.25981140136719 192.14541625976562 56.39235305786133 190.59231567382812 52.387935638427734 191.56033325195312 C 50.37726608144176 192.0463873444954 47.99980163574219 195.94845581054688 47.99980163574219 195.94845581054688 L 78.13168334960938 195.94847106933594 L 72.86591339111328 192.14541625976562 C 72.86591339111328 192.14541625976562 94.73136901855469 178.7756805419922 106.21577453613281 169.9121856689453 C 107.91058856995242 168.6041531829333 109.4337387084961 164.0613250732422 109.4337387084961 164.35386657714844 C 109.4337387084961 164.6464080810547 121.13544464111328 171.37489318847656 121.13544464111328 171.37489318847656 C 121.13544464111328 171.37489318847656 98.60966491699219 193.02304077148438 101.24254608154297 192.43795776367188 C 103.87542724609375 191.85287475585938 91.19573974609375 190.6017303466797 86.907958984375 191.56033325195312 C 85.19235649294185 191.94388400325667 83.98253631591797 195.94847106933594 83.98253631591797 195.94847106933594 L 117.33238983154297 195.94847106933594 C 117.33238983154297 195.94847106933594 116.67466735839844 193.63040161132812 114.11442565917969 193.02305603027344 C 111.6456922196352 192.4374182189032 106.50831604003906 192.43795776367188 106.50831604003906 192.43795776367188 C 106.50831604003906 192.43795776367188 123.58607482910156 176.33322143554688 131.9595184326172 165.81658935546875 C 133.41727244473486 163.98572223142642 133.67848205566406 161.85707092285156 131.9595184326172 158.79556274414062 C 130.60750492268878 156.38759996768772 126.40121459960938 152.6521759033203 126.40121459960938 152.6521759033203 L 94.22152709960938 162.3060760498047 Z" style="fill: rgb(0, 0, 0); fill-opacity: 1; stroke: rgb(0, 0, 0); stroke-opacity: 0; stroke-width: 0; paint-order: stroke;"/>
    </g>
</svg>
